<?xml version="1.0" encoding="UTF-8"?>
<svg xmlns="http://www.w3.org/2000/svg" xmlns:xlink="http://www.w3.org/1999/xlink" width="34px" height="34px" viewBox="0 0 34 30" version="1.1">
<g id="surface1">
<path style=" stroke:none;fill-rule:evenodd;fill:rgb(56.078434%,58.823532%,61.176473%);fill-opacity:1;" d="M 14.976562 -0.03125 C 18.316406 -0.03125 21.660156 -0.03125 25 -0.03125 C 25 5.261719 25 10.554688 25 15.847656 C 24.980469 15.847656 24.957031 15.847656 24.9375 15.847656 C 23.777344 13.441406 22.582031 11.058594 21.351562 8.6875 C 19.8125 11.742188 18.308594 14.8125 16.835938 17.894531 C 17.058594 18.269531 17.3125 18.628906 17.597656 18.96875 C 17.65625 19.046875 17.710938 19.046875 17.765625 18.96875 C 17.847656 18.816406 17.914062 18.652344 17.960938 18.480469 C 17.863281 18.339844 17.765625 18.199219 17.664062 18.058594 C 17.621094 17.972656 17.621094 17.886719 17.664062 17.796875 C 17.886719 17.363281 18.105469 16.929688 18.328125 16.496094 C 18.558594 16.457031 18.789062 16.414062 19.023438 16.367188 C 19.765625 14.824219 20.542969 13.308594 21.351562 11.8125 C 22.554688 14.046875 23.730469 16.300781 24.867188 18.578125 C 24.898438 18.65625 24.941406 18.722656 25 18.773438 C 25 18.90625 25 19.035156 25 19.164062 C 24.980469 19.164062 24.957031 19.164062 24.9375 19.164062 C 23.757812 16.835938 22.5625 14.515625 21.351562 12.203125 C 21.101562 12.609375 20.882812 13.035156 20.6875 13.472656 C 21.417969 14.9375 22.160156 16.402344 22.910156 17.863281 C 22.960938 17.945312 22.949219 18.007812 22.875 18.058594 C 21.238281 18.035156 19.601562 18.058594 17.960938 18.125 C 17.972656 18.164062 17.992188 18.183594 18.03125 18.1875 C 18.316406 18.535156 18.605469 18.882812 18.890625 19.230469 C 20.917969 19.292969 22.953125 19.316406 25 19.296875 C 25 22.851562 25 26.410156 25 29.96875 C 21.660156 29.96875 18.316406 29.96875 14.976562 29.96875 C 14.976562 19.96875 14.976562 9.96875 14.976562 -0.03125 Z M 14.976562 -0.03125 "/>
<path style=" stroke:none;fill-rule:evenodd;fill:rgb(0%,26.274511%,46.27451%);fill-opacity:1;" d="M 33.96875 15.457031 C 33.96875 15.933594 33.96875 16.410156 33.96875 16.886719 C 33.589844 18.09375 32.773438 18.863281 31.507812 19.199219 C 29.882812 19.574219 28.289062 19.476562 26.726562 18.90625 C 26.726562 18.230469 26.726562 17.558594 26.726562 16.886719 C 27.242188 17.125 27.773438 17.328125 28.320312 17.503906 C 29.238281 17.742188 30.144531 17.722656 31.046875 17.441406 C 31.824219 16.996094 32.011719 16.378906 31.609375 15.585938 C 31.488281 15.464844 31.367188 15.347656 31.242188 15.226562 C 30.179688 14.785156 29.117188 14.328125 28.054688 13.859375 C 26.570312 12.882812 26.203125 11.589844 26.960938 9.988281 C 27.738281 9.003906 28.769531 8.472656 30.046875 8.394531 C 31.136719 8.296875 32.1875 8.441406 33.203125 8.816406 C 33.234375 9.46875 33.246094 10.117188 33.234375 10.769531 C 32.621094 10.492188 31.980469 10.285156 31.3125 10.152344 C 30.890625 10.109375 30.46875 10.109375 30.046875 10.152344 C 29.324219 10.222656 28.878906 10.601562 28.71875 11.289062 C 28.765625 11.738281 28.988281 12.074219 29.382812 12.300781 C 30.117188 12.652344 30.867188 12.957031 31.640625 13.210938 C 32.765625 13.628906 33.539062 14.375 33.96875 15.457031 Z M 33.96875 15.457031 "/>
<path style=" stroke:none;fill-rule:evenodd;fill:rgb(0%,26.274511%,46.27451%);fill-opacity:1;" d="M -0.03125 8.558594 C 0.652344 8.558594 1.339844 8.558594 2.023438 8.558594 C 2.015625 9.96875 2.023438 11.378906 2.058594 12.789062 C 3.488281 11.40625 4.894531 10.007812 6.273438 8.589844 C 7.160156 8.535156 8.046875 8.546875 8.929688 8.621094 C 7.445312 10.121094 5.984375 11.640625 4.546875 13.179688 C 6.097656 15.195312 7.648438 17.210938 9.195312 19.230469 C 8.335938 19.316406 7.46875 19.316406 6.609375 19.230469 C 5.4375 17.660156 4.25 16.097656 3.054688 14.542969 C 2.746094 14.910156 2.414062 15.257812 2.058594 15.585938 C 2.027344 16.820312 2.015625 18.058594 2.023438 19.296875 C 1.339844 19.296875 0.652344 19.296875 -0.03125 19.296875 C -0.03125 15.714844 -0.03125 12.136719 -0.03125 8.558594 Z M -0.03125 8.558594 "/>
<path style=" stroke:none;fill-rule:evenodd;fill:rgb(0%,26.274511%,46.27451%);fill-opacity:1;" d="M 11.054688 8.558594 C 11.765625 8.558594 12.472656 8.558594 13.179688 8.558594 C 13.179688 12.136719 13.179688 15.714844 13.179688 19.296875 C 12.472656 19.296875 11.765625 19.296875 11.054688 19.296875 C 11.054688 15.714844 11.054688 12.136719 11.054688 8.558594 Z M 11.054688 8.558594 "/>
<path style=" stroke:none;fill-rule:evenodd;fill:rgb(97.254902%,97.254902%,97.254902%);fill-opacity:1;" d="M 19.625 8.558594 C 20.113281 8.535156 20.597656 8.558594 21.085938 8.621094 C 19.578125 11.679688 18.074219 14.738281 16.570312 17.796875 C 16.0625 17.875 15.550781 17.886719 15.039062 17.832031 C 16.5625 14.734375 18.089844 11.644531 19.625 8.558594 Z M 19.625 8.558594 "/>
<path style=" stroke:none;fill-rule:evenodd;fill:rgb(97.254902%,97.254902%,97.254902%);fill-opacity:1;" d="M 24.9375 15.847656 C 24.957031 16.769531 24.933594 17.679688 24.867188 18.578125 C 23.730469 16.300781 22.554688 14.046875 21.351562 11.8125 C 20.542969 13.308594 19.765625 14.824219 19.023438 16.367188 C 18.789062 16.414062 18.558594 16.457031 18.328125 16.496094 C 18.105469 16.929688 17.886719 17.363281 17.664062 17.796875 C 17.621094 17.886719 17.621094 17.972656 17.664062 18.058594 C 17.765625 18.199219 17.863281 18.339844 17.960938 18.480469 C 17.914062 18.652344 17.847656 18.816406 17.765625 18.96875 C 17.710938 19.046875 17.65625 19.046875 17.597656 18.96875 C 17.3125 18.628906 17.058594 18.269531 16.835938 17.894531 C 18.308594 14.8125 19.8125 11.742188 21.351562 8.6875 C 22.582031 11.058594 23.777344 13.441406 24.9375 15.847656 Z M 24.9375 15.847656 "/>
<path style=" stroke:none;fill-rule:evenodd;fill:rgb(97.254902%,97.647059%,97.647059%);fill-opacity:1;" d="M 24.9375 19.164062 C 22.933594 19.230469 20.917969 19.25 18.890625 19.230469 C 18.605469 18.882812 18.316406 18.535156 18.03125 18.1875 C 19.644531 18.144531 21.261719 18.101562 22.875 18.058594 C 22.949219 18.007812 22.960938 17.945312 22.910156 17.863281 C 22.160156 16.402344 21.417969 14.9375 20.6875 13.472656 C 20.882812 13.035156 21.101562 12.609375 21.351562 12.203125 C 22.5625 14.515625 23.757812 16.835938 24.9375 19.164062 Z M 24.9375 19.164062 "/>
<path style=" stroke:none;fill-rule:evenodd;fill:rgb(82.745099%,85.09804%,85.09804%);fill-opacity:1;" d="M 24.9375 15.847656 C 24.957031 15.847656 24.980469 15.847656 25 15.847656 C 25 16.820312 25 17.796875 25 18.773438 C 24.941406 18.722656 24.898438 18.65625 24.867188 18.578125 C 24.933594 17.679688 24.957031 16.769531 24.9375 15.847656 Z M 24.9375 15.847656 "/>
<path style=" stroke:none;fill-rule:evenodd;fill:rgb(97.647059%,97.647059%,97.647059%);fill-opacity:1;" d="M 22.609375 17.863281 C 21.050781 17.886719 19.5 17.863281 17.960938 17.796875 C 18.136719 17.453125 18.316406 17.109375 18.492188 16.757812 C 19.6875 16.671875 20.882812 16.671875 22.078125 16.757812 C 22.277344 17.121094 22.453125 17.488281 22.609375 17.863281 Z M 22.609375 17.863281 "/>
<path style=" stroke:none;fill-rule:evenodd;fill:rgb(65.882355%,68.627453%,70.980394%);fill-opacity:1;" d="M 17.960938 17.796875 C 19.5 17.863281 21.050781 17.886719 22.609375 17.863281 C 21.050781 17.949219 19.480469 17.949219 17.898438 17.863281 C 17.90625 17.824219 17.925781 17.800781 17.960938 17.796875 Z M 17.960938 17.796875 "/>
<path style=" stroke:none;fill-rule:evenodd;fill:rgb(66.274512%,69.01961%,70.980394%);fill-opacity:1;" d="M 16.632812 18.125 C 16.113281 18.101562 15.605469 18.125 15.109375 18.1875 C 15.070312 18.183594 15.050781 18.164062 15.039062 18.125 C 15.582031 18.039062 16.113281 18.039062 16.632812 18.125 Z M 16.632812 18.125 "/>
<path style=" stroke:none;fill-rule:evenodd;fill:rgb(65.490198%,68.235296%,70.588237%);fill-opacity:1;" d="M 22.875 18.058594 C 21.261719 18.101562 19.644531 18.144531 18.03125 18.1875 C 17.992188 18.183594 17.972656 18.164062 17.960938 18.125 C 19.601562 18.058594 21.238281 18.035156 22.875 18.058594 Z M 22.875 18.058594 "/>
<path style=" stroke:none;fill-rule:evenodd;fill:rgb(97.254902%,97.254902%,97.254902%);fill-opacity:1;" d="M 16.632812 18.125 C 16.929688 18.472656 17.21875 18.832031 17.5 19.199219 C 16.96875 19.242188 16.4375 19.242188 15.90625 19.199219 C 15.628906 18.863281 15.363281 18.527344 15.109375 18.1875 C 15.605469 18.125 16.113281 18.101562 16.632812 18.125 Z M 16.632812 18.125 "/>
<path style=" stroke:none;fill-rule:evenodd;fill:rgb(65.490198%,68.235296%,70.588237%);fill-opacity:1;" d="M 24.9375 19.164062 C 24.957031 19.164062 24.980469 19.164062 25 19.164062 C 25 19.207031 25 19.25 25 19.296875 C 22.953125 19.316406 20.917969 19.292969 18.890625 19.230469 C 20.917969 19.25 22.933594 19.230469 24.9375 19.164062 Z M 24.9375 19.164062 "/>
</g>
</svg>
